<svg xmlns="http://www.w3.org/2000/svg" width="400" height="231" viewBox="0 0 400 230.7"><path d="M0 78.3L0 156.6 0.9 156.6C2.3 156.6 2.4 156.6 2.3 152.7 2.3 150.8 2.2 149.1 2.2 149 2 148.6 2.4 148.1 3 148 3.9 147.8 4.6 148.1 4.8 148.6 4.8 148.9 5.2 149.5 5.5 149.9 5.9 150.3 6.2 150.7 6.3 150.9 6.4 151.1 6.5 151.2 6.8 151 7.2 150.7 7.3 150.2 7.5 145 7.6 141.5 7.7 139.1 7.9 138.9 8.1 138.7 9.3 138.6 13.2 138.6 16 138.6 18.8 138.5 19.4 138.4L20.4 138.3 20.6 134.7C20.9 127.8 22.6 126.7 32.3 126.8 36.1 126.9 37.2 127.1 37.8 127.9 38.5 129.1 39.1 128.6 39.1 126.6 39.1 125.7 39.2 124.8 39.2 124.6 39.2 124.5 39.8 124.1 40.5 123.7 41.5 123.1 41.8 122.8 42.1 121.9 43 119.6 43.9 119.3 48.2 119.7 50.6 120 50.6 120 52.3 118.4 53 117.7 53.3 117.2 53.6 115.8 53.9 114.8 54.3 113.8 54.6 113.5 54.9 113.1 55.3 112.5 55.4 112.1 55.7 111 55.9 110.9 59 110.8 64 110.6 67.4 111.3 68.3 112.7 68.8 113.6 69.5 113.7 71.6 113L72.5 112.7 73 109.8C73.5 105.9 73.5 105.9 74.2 105.5 74.9 105 79.4 105 80.2 105.4 81.1 105.8 81.4 106.8 81.6 109.3 81.7 110.6 81.7 111.7 81.8 111.7 81.8 111.7 84.2 111.8 87.2 111.9L92.6 112 92.6 127.9 92.7 143.8 93.2 143.8 93.8 143.8 93.7 129.6C93.6 110.8 94.1 104.9 95.8 102.6 96.3 101.9 98.8 100.9 101 100.6 102.9 100.3 103.5 100 104.2 99 105.5 97.1 106.8 99.1 106.8 103.2 106.8 106.2 106.8 106.2 109.5 106.4 113.2 106.7 113.9 107.2 114.1 110.1L114.3 111.8 115.1 111.8C115.5 111.9 116.1 111.9 116.4 111.8L117 111.6 117 102.9C117 92.4 116.7 93.2 119.6 93.2 122 93.2 122.3 93.1 122.3 91.7 122.3 89.5 122.9 88.3 128.2 81 131.8 75.9 132.6 72.9 132.6 64.7 132.6 60.5 132.8 59.8 133.8 60 134.1 60.1 134.2 60.6 134.3 63.2 134.7 72.9 136.3 77.3 140.9 82.5 141.4 83 142 83.8 142.3 84.3 142.9 85 143.4 85.5 143.6 85.3 143.7 85.2 143.8 82.1 143.9 78.4 144.2 69.9 144.3 69.5 147.4 69.2 148.6 69.1 149.2 68.9 149.9 68.4L150.8 67.8 152.6 68.1C156.5 68.9 160.1 69.4 165.9 70.2 167.3 70.5 168.8 70.7 169.2 70.7 170.7 70.9 170.7 71.4 171 81.8 171.1 86.8 171.2 94.3 171.1 98.4L171.1 105.8 172.1 105.8C173 105.9 173.2 105.8 173.9 105 175.2 103.6 176.6 103.6 177.8 104.9 178.6 105.7 178.9 105.9 180.5 106.2 185.6 107.3 186 107.7 186.1 112.8 186.2 114.6 186.3 116.3 186.4 116.4 186.8 116.8 195.4 116.8 195.8 116.4 196 116.2 196.1 114.5 196.1 110.3 196.1 100.9 196.4 100.2 200.6 99.5 203.4 99.1 203.6 99 204 97.9 204.6 96.6 206.1 95.7 207.4 95.8 209.9 96.2 211.5 97 211.5 98.1 211.5 98.7 212.3 99 213.1 98.7L213.7 98.4 213.9 93.3C213.9 90.5 214.1 87.7 214.3 87.1 214.4 86.4 214.7 85.2 214.9 84.2 215.5 81.4 216.3 80.8 219.4 80.5L221.1 80.4 221.2 79.2C221.3 77.7 221.4 77.6 225 77.8 228.1 78 229.3 78.6 230.3 80.4 230.6 81 231.2 81.7 231.5 81.8 232.5 82.3 233 82.8 233.5 83.8 234.7 86.1 234.6 85.7 234.8 107.4L234.9 127.7 235.5 127.8C236.2 127.9 236.2 129.4 236.4 92.9L236.7 59 237.3 58.2C237.7 57.7 238.2 57 238.4 56.6 239.4 54.6 240.6 56.6 241.1 60.8 241.4 63.8 241.5 64 243.1 63.7 244.5 63.5 244.5 63.5 244.7 62.2 245.3 58.9 247 58.2 248.1 60.9 248.5 61.6 248.5 61.6 249.7 60.8L250.3 60.3 250.9 61C251.2 61.3 251.4 61.8 251.4 62.1 251.4 63.9 252.6 64.5 256.2 64.7 259.6 64.8 259.4 65.1 259.7 61.1 260 57.8 261.2 54.6 262.1 54.6 262.8 54.6 264.4 58 264.6 60 264.9 61.8 265.1 62.1 266 62 266.5 61.9 266.6 61.7 267 60.3 267.7 57.8 268.1 57.5 269.5 59.1L270.3 60.2 270.4 94.6C270.6 133.3 270.6 133.6 271.6 131 272.5 128.7 273.8 128.2 279.8 127.7 282.8 127.5 284.3 127.3 284.9 127 285.7 126.6 285.8 126.6 286.5 127 287.7 127.7 302.4 127.8 302.8 127.2 303.1 126.9 303.1 122.6 303.1 104.8 303.1 85 303.2 82.9 303.5 82.7 303.7 82.6 305 82.6 306.4 82.6 309.2 82.6 309.3 82.5 309.3 80.4 309.3 77.9 311 78.1 311.2 80.7 311.3 82.8 311.2 82.7 314.2 82.7L316.6 82.7 316.7 84.2C316.7 85 316.8 86 316.8 86.4L317 87.2 320.2 87.2C324.7 87.2 324.3 86.7 324.3 92.2 324.3 98.2 324.7 99.9 326.1 99.9 327.3 99.9 327.3 100 327.3 102.6 327.3 105 327.7 109.6 327.9 111.6 328.1 112.4 328.3 112.9 328.9 113.4 329.3 113.8 329.8 114.6 330.1 115.2 331 117.4 332.2 117.8 332.9 116.2 333.6 114.6 333.8 106.5 333.2 105 332.6 103.5 332.5 100.3 333 99.9 333.3 99.7 334.5 99.5 336.8 99.3 341.3 98.9 341.9 98.7 342.4 97.2L342.7 96.1 344 95.9C347.1 95.5 351.2 96.4 352 97.7 352.4 98.4 352.7 98.6 354.1 99 355.7 99.5 357.6 100.7 359.1 102.1 360.8 103.6 361.3 105.9 361.9 113.8 362.3 120 362.4 120.3 363.8 121.1 364.7 121.6 364.9 121.8 365.2 123.1L365.5 124.5 368.2 124.5C369.7 124.5 371 124.5 371.1 124.6 371.2 124.7 371.3 128 371.3 131.9 371.3 139.7 371.3 139.7 372.2 138.7 372.7 138.3 373.5 137.8 374.6 137.5 377.9 136.4 378.1 136.8 378.1 144.9 378.1 150.4 378.1 151.1 378.5 151.3 379.1 151.6 380.2 151.2 381 150.4 382 149.5 383.2 149.4 383.9 150.3 384.4 150.9 384.5 150.9 385.6 150.8 387.5 150.5 388 149.8 388 147.6 388 147.2 388.2 146.4 388.5 145.8 388.9 144.9 389.2 144.7 390.1 144.9 390.2 144.9 390.6 144.6 391 144.3 392.4 142.9 395.5 142.8 396.3 144 396.8 144.9 397.8 145.3 399.3 145.3L400 145.3 400 72.7 400 0 200 0 0 0 0 78.3" fill="#fbfbfb"/><path d="M261.5 55C260.5 56.5 260 58.1 259.7 61.1 259.4 65.1 259.6 64.8 256.2 64.7 252.6 64.5 251.4 63.9 251.4 62.1 251.4 61.8 251.2 61.3 250.9 61L250.3 60.3 249.7 60.8C248.5 61.6 248.5 61.6 248.1 60.9 247 58.2 245.3 58.9 244.7 62.2 244.5 63.5 244.5 63.5 243.1 63.7 241.5 64 241.4 63.8 241.1 60.8 240.6 56.6 239.4 54.6 238.4 56.6 238.2 57 237.7 57.7 237.3 58.2L236.7 59 236.4 92.9C236.2 129.4 236.2 127.9 235.5 127.8L234.9 127.7 234.8 107.4C234.6 85.7 234.7 86.1 233.5 83.8 233 82.8 232.5 82.3 231.5 81.8 231.2 81.7 230.6 81 230.3 80.4 229.3 78.6 228.1 78 225 77.8 221.4 77.6 221.3 77.7 221.2 79.2L221.1 80.4 219.4 80.5C216.3 80.8 215.5 81.4 214.9 84.2 214.7 85.2 214.4 86.4 214.3 87.1 214.1 87.7 213.9 90.5 213.9 93.3L213.7 98.4 213.1 98.7C212.3 99 211.5 98.7 211.5 98.1 211.5 97 209.9 96.2 207.4 95.8 206.1 95.7 204.6 96.6 204 97.9 203.6 99 203.4 99.1 200.6 99.5 196.4 100.2 196.1 100.9 196.1 110.3 196.1 114.5 196 116.2 195.8 116.4 195.4 116.8 186.8 116.8 186.4 116.4 186.3 116.3 186.2 114.6 186.1 112.8 186 107.7 185.6 107.3 180.5 106.2 178.9 105.9 178.6 105.7 177.8 104.9 176.6 103.6 175.2 103.6 173.9 105 173.2 105.8 173 105.9 172.1 105.8L171.1 105.8 171.1 98.4C171.2 94.3 171.1 86.8 171 81.8 170.7 71.4 170.7 70.9 169.2 70.7 168.8 70.7 167.3 70.5 165.9 70.2 160.1 69.4 156.5 68.9 152.6 68.1L150.8 67.8 149.9 68.4C149.2 68.9 148.6 69.1 147.4 69.2 144.3 69.5 144.2 69.9 143.9 78.4 143.8 82.1 143.7 85.2 143.6 85.3 143.4 85.5 142.9 85 142.3 84.3 142 83.8 141.4 83 140.9 82.5 136.3 77.3 134.7 72.9 134.3 63.2 134.2 60.6 134.1 60.1 133.8 60 132.8 59.8 132.6 60.5 132.6 64.7 132.6 72.9 131.8 75.9 128.2 81 122.9 88.3 122.3 89.5 122.3 91.7 122.3 93.1 122 93.2 119.6 93.2 116.7 93.2 117 92.4 117 102.9L117 111.6 116.4 111.8C116.1 111.9 115.5 111.9 115.1 111.8L114.3 111.8 114.1 110.1C113.9 107.2 113.2 106.7 109.5 106.4 106.8 106.2 106.8 106.2 106.8 103.2 106.8 99.1 105.5 97.1 104.2 99 103.5 100 102.9 100.3 101 100.6 98.8 100.9 96.3 101.9 95.8 102.6 94.1 104.9 93.6 110.8 93.7 129.6L93.8 143.8 93.2 143.8 92.7 143.8 92.6 127.9 92.6 112 87.2 111.9C84.2 111.8 81.8 111.7 81.8 111.7 81.7 111.7 81.7 110.6 81.6 109.3 81.4 106.8 81.1 105.8 80.2 105.4 79.4 105 74.9 105 74.2 105.5 73.5 105.9 73.5 105.9 73 109.8L72.5 112.7 71.6 113C69.5 113.7 68.8 113.6 68.3 112.7 67.4 111.3 64 110.6 59 110.8 55.9 110.9 55.7 111 55.4 112.1 55.3 112.5 54.9 113.1 54.6 113.5 54.3 113.8 53.9 114.8 53.6 115.8 53.3 117.2 53 117.7 52.3 118.4 50.6 120 50.6 120 48.2 119.7 43.9 119.3 43 119.6 42.1 121.9 41.8 122.8 41.5 123.1 40.5 123.7 39.8 124.1 39.2 124.5 39.2 124.6 39.2 124.8 39.1 125.7 39.1 126.6 39.1 128.6 38.5 129.1 37.8 127.9 36.8 126.5 25.7 126.3 23.5 127.7 21.2 129.2 20.8 130.2 20.6 134.7L20.4 138.3 19.4 138.4C18.8 138.5 16 138.6 13.2 138.6 9.3 138.6 8.1 138.7 7.9 138.9 7.7 139.1 7.6 141.5 7.5 145 7.3 150.2 7.2 150.7 6.8 151 6.5 151.2 6.4 151.1 6.3 150.9 6.2 150.7 5.9 150.3 5.5 149.9 5.2 149.5 4.8 148.9 4.8 148.6 4.6 148.1 3.9 147.8 3 148 2.4 148.1 2 148.6 2.2 149 2.2 149.1 2.3 150.8 2.3 152.7 2.4 156.6 2.3 156.6 0.9 156.6L0 156.6 0 193.7 0 230.7 200 230.7 400 230.7 400 188 400 145.3 399.3 145.3C397.8 145.3 396.8 144.9 396.3 144 395.5 142.8 392.4 142.9 391 144.3 390.6 144.6 390.2 144.9 390.1 144.9 389.2 144.7 388.9 144.9 388.5 145.8 388.2 146.4 388 147.2 388 147.6 388 149.8 387.5 150.5 385.6 150.8 384.5 150.9 384.4 150.9 383.9 150.3 383.2 149.4 382 149.5 381 150.4 380.2 151.2 379.1 151.6 378.5 151.3 378.1 151.1 378.1 150.4 378.1 144.9 378.1 136.8 377.9 136.4 374.6 137.5 373.5 137.8 372.7 138.3 372.2 138.7 371.3 139.7 371.3 139.7 371.3 131.9 371.3 128 371.2 124.7 371.1 124.6 371 124.5 369.7 124.5 368.2 124.5L365.5 124.5 365.2 123.1C364.9 121.8 364.7 121.6 363.8 121.1 362.4 120.3 362.3 120 361.9 113.8 361.3 105.9 360.8 103.6 359.1 102.1 357.6 100.7 355.7 99.5 354.1 99 352.7 98.6 352.4 98.4 352 97.7 351.2 96.4 347.1 95.5 344 95.9L342.7 96.1 342.4 97.2C341.9 98.7 341.3 98.9 336.8 99.3 334.5 99.5 333.3 99.7 333 99.9 332.5 100.3 332.6 103.5 333.2 105 333.8 106.5 333.6 114.6 332.9 116.2 332.2 117.8 331 117.4 330.1 115.2 329.8 114.6 329.3 113.8 328.9 113.4 328.3 112.9 328.1 112.4 327.9 111.6 327.7 109.6 327.3 105 327.3 102.6 327.3 100 327.3 99.9 326.1 99.9 324.7 99.9 324.3 98.2 324.3 92.2 324.3 86.7 324.7 87.2 320.2 87.2L317 87.2 316.8 86.4C316.8 86 316.7 85 316.7 84.2L316.6 82.7 314.2 82.7C311.2 82.7 311.3 82.8 311.2 80.7 311 78.1 309.3 77.9 309.3 80.4 309.3 82.5 309.2 82.6 306.4 82.6 305 82.6 303.7 82.6 303.5 82.7 303.2 82.9 303.1 85 303.1 104.8 303.1 122.6 303.1 126.9 302.8 127.2 302.4 127.8 287.7 127.7 286.5 127 285.8 126.6 285.7 126.6 284.9 127 284.3 127.3 282.8 127.5 279.8 127.7 273.8 128.2 272.5 128.7 271.6 131 270.6 133.6 270.6 133.3 270.4 94.6L270.3 60.2 269.5 59.1C268.1 57.5 267.7 57.8 267 60.3 266.6 61.7 266.5 61.9 266 62 265.1 62.1 264.8 61.8 264.7 60.2 264.6 59.1 264.3 58.2 263.5 56.6 262.4 54.4 262.1 54.1 261.5 55" fill="#040404"/></svg>
